<svg version="1.0" xmlns="http://www.w3.org/2000/svg" width="3456" height="3456" viewBox="0 0 2592 2592"><path d="M278 818.6c-3.6.2-15.3.8-26 1.4-19.7 1.1-55.6 4.3-68.5 6.1-33.8 4.7-43.3 7.2-54.2 14.1-10.3 6.5-16.3 14.5-20.5 27.3-2 6-2.3 9.1-2.3 22 0 10.6.6 17.5 1.8 23.5 8.2 38.5 31.5 89.9 68.2 150 26.1 42.7 31.7 52.5 42.5 74.5 6.5 13.2 21 44 32 68.5 29.8 65.6 47.6 101.1 68.8 137 59.2 100.2 131.4 166.4 221 202.6 68 27.5 164.4 43.1 237.7 38.5 90.2-5.7 165.7-31.4 232-79.1 43.2-31 81-72.2 109.4-119 12.4-20.4 31.3-59.3 55.8-115 5.2-11.8 10.7-24.4 12.3-28 30.6-69.4 45.7-96.3 63.2-112.6 20.3-19 43.5-18.9 72.8.1 24.2 15.6 42.6 44.2 69.3 107.5 5.2 12.4 14.5 34.4 20.7 48.8 11.6 27.5 25.3 57.3 34.1 73.9 41.1 77.8 88.8 130.8 152.4 169.3 11.7 7 44.2 22.5 58.5 27.8 109.6 40.7 242.1 40.3 366.3-1.2 91.3-30.5 163-79.6 209.4-143.1 17-23.4 28.4-47.3 47.4-99.9 2.2-6.1 4.7-12.9 5.6-15.1 2.9-7.5 18.5-51.9 28.8-82 5.7-16.5 11.7-34.1 13.5-39 1.7-5 3.5-10.1 4-11.5 1.4-4.5 10.1-28.3 15.1-41.1 20.9-54.3 43.6-93.8 75.4-131.2 27.8-32.9 36.9-45.9 43.1-62.4 9.4-25.2 6.2-44-10.6-61.9-23.4-24.9-77-39.8-160-44.5-23.2-1.3-98.6-.7-124.5 1-161.2 10.7-333 32.8-436.5 56.1-28.1 6.3-41.8 9.5-52 12.1-98.5 25.3-173.2 54.4-237.5 92.7-11.7 7-35.2 22.4-42.2 27.7-4.6 3.5-13 5.8-34.3 9.5-51.5 8.8-101 9.1-141.5.9-20.6-4.2-36.4-9.6-54-18.4-15-7.5-23.7-13.6-41-28.6-9.7-8.4-18.4-13.9-36.5-23-79.8-40.1-247.8-82.8-431.5-109.8-37.1-5.5-95.3-12.8-119.5-15-5.8-.6-19.9-1.9-31.5-3-19.6-1.9-57.5-4.7-98.5-7.1-16.8-1.1-124.7-2.1-138-1.4zm550 947c0 15.9.2 18.9 1.6 19.8 1 .8 2 4.3 2.8 9.6.7 4.7 2.2 11.6 3.3 15.5 1.2 3.8 2.6 8.6 3.1 10.5 1.8 6.3 6.2 18.3 7.1 19.4.5.6 1.4 2.9 2.1 5.1.7 2.2 2.3 6 3.5 8.5 1.3 2.5 2.8 5.6 3.4 7 .6 1.4 2.6 5.2 4.6 8.5 1.9 3.3 4 7.1 4.7 8.5.7 1.4 4.9 7.9 9.3 14.5 27.2 40.3 63.1 75.1 107.9 104.5 1.3.8 3.6 2.4 5.2 3.4 12.5 8.3 27 16.3 49.4 27.2 7.4 3.6 15.6 7.6 18.1 9 2.6 1.3 5.3 2.4 6.1 2.4.8 0 3.7 1.1 6.3 2.5 2.7 1.3 6.3 2.7 7.9 3.1 1.7.3 4.5 1.4 6.1 2.4 1.7 1 5.3 2.4 8 3.1 2.8.6 6.1 1.8 7.5 2.6 1.4.7 5.4 2.2 9 3.2 3.6 1.1 11 3.3 16.5 5 5.5 1.7 12.7 3.7 16 4.5 3.3.7 9.4 2.3 13.5 3.4 9.2 2.5 19.6 4.7 31.5 6.7 5 .9 13.5 2.4 19 3.5s15.4 2.4 22 3c17 1.5 21.5 2.1 21 3.1-1.1 1.7 10.1 2 64.8 1.7 45-.2 56.9-.6 57.6-1.6.5-.8 6.3-1.8 17.2-2.8 9-.8 20.5-2.4 25.4-3.4 5-1 11.5-2.2 14.5-2.5 5.2-.6 20.6-3.8 33.5-7 3.3-.9 8-2 10.5-2.6 7.7-2 25.4-6.9 28.5-8 1.7-.6 6.5-2.1 10.8-3.4 4.2-1.2 8.3-2.7 9-3.2.6-.6 3.5-1.6 6.2-2.2 2.8-.7 6.4-2.1 8-3.1 1.7-1 4.4-2.1 6.1-2.4 1.6-.4 5.2-1.8 7.9-3.1 2.6-1.4 5.5-2.5 6.3-2.5.8 0 3.5-1.1 6.1-2.4 2.5-1.4 7.8-3.9 11.6-5.6 3.9-1.7 7.7-3.5 8.5-4 .8-.5 5.6-3 10.5-5.5 16.7-8.6 37.7-20.8 39.6-23.1.6-.8 1.7-1.4 2.5-1.4.7 0 1.9-.6 2.6-1.3.7-.7 4.2-3.3 7.8-5.8 8-5.4 12.7-9 20.5-15.2 3.3-2.7 7.3-5.9 8.8-7 12.2-9.4 39.7-37.1 50.8-51.2 12.2-15.6 21.6-29.2 27-39 .9-1.7 2.7-5 4.1-7.5 4.3-7.7 5.6-10.3 8.8-17.5 1.8-3.9 4-8.8 5-11 1.1-2.2 2.2-5.4 2.6-7 .4-1.7 1.5-4.6 2.5-6.7 1-2 2.2-5.6 2.5-8 .4-2.3 1.6-6.3 2.6-8.7 1-2.4 2.5-8.9 3.3-14.4.9-6.8 1.9-10.5 2.9-11.3 1.4-.9 1.6-4 1.6-19.8V1747h-31.9c-17.6 0-32.6.3-33.5.6-1.1.4-1.6 1.9-1.6 4.9 0 8.3-3 31.3-4.9 37.6-1.1 3.5-2.2 8-2.6 9.9-.9 4.3-5 15-8.1 21.1-1.3 2.6-2.4 5.3-2.4 6.1 0 .7-1.1 3-2.5 5s-2.5 4.3-2.5 5c0 .7-1.4 3.1-3 5.2-1.7 2.2-3 4.3-3 4.7 0 .8-8.8 14-15 22.4-9.9 13.5-38.9 42.4-53 52.9-9.2 6.8-10.6 7.8-23.8 16.7-15.7 10.6-20.1 13.3-24.3 15.4-1.9.9-5.6 2.9-8.4 4.5-5.5 3.2-20.9 10.9-29.5 14.7-3 1.4-6.4 3-7.5 3.6-1.1.6-4.8 2.1-8.2 3.4-3.5 1.3-9.1 3.4-12.5 4.7-3.5 1.3-8.5 3.2-11.3 4.1-2.7 1-7.9 2.8-11.5 4.1-3.6 1.2-8.5 2.7-11 3.2-2.5.6-7.1 2-10.2 3.1-3.2 1.2-6.9 2.1-8.3 2.1-1.4 0-5.1.9-8.3 1.9-3.1 1.1-8.6 2.4-12.2 3.1-3.6.6-10.3 1.9-15 3-4.7 1-11.2 2.2-14.5 2.5-3.3.4-11.3 1.5-17.7 2.6-14.2 2.3-54.9 4.9-78.8 4.9-21.8 0-65.7-2.6-77.1-4.5-4.7-.8-13.7-2.2-20-3-6.3-.8-13.6-2.1-16.4-2.9-2.7-.8-7.5-1.7-10.5-2.1-3-.4-9.1-1.8-13.4-3.1-4.4-1.3-9-2.4-10.3-2.4-1.3 0-4.9-.9-8.1-2.1-3.1-1.1-7.7-2.5-10.2-3.1-2.5-.5-7.4-2-11-3.2-3.6-1.3-8.7-3.1-11.5-4.1-2.7-.9-7.8-2.8-11.2-4.1-3.5-1.3-9.1-3.4-12.5-4.7-3.5-1.3-7.2-2.8-8.3-3.4-1.1-.6-4.5-2.2-7.5-3.6-13.4-6-26.7-12.8-39-20-2.5-1.4-6.5-3.7-9-5.2-5.4-3.1-10.4-6.4-19.6-12.8-6.9-4.8-8.2-5.7-18.6-13.5-15.6-11.6-44.8-41.4-56-57.2-8.7-12.2-17.1-26.1-21.2-34.9-.6-1.4-2.3-4.9-3.8-7.9-1.6-3-2.8-6.1-2.8-7 0-.8-1.1-3.8-2.4-6.6-1.3-2.8-2.9-7.6-3.4-10.6-.6-3-1.8-7.5-2.7-10-1.6-4.4-4.5-27.4-4.5-35.6 0-2.9-.5-4.4-1.6-4.8-.9-.3-15.9-.6-33.5-.6H828v18.6z"/></svg>